<?xml version="1.0" encoding="UTF-8" standalone="no"?>
<!DOCTYPE svg PUBLIC "-//W3C//DTD SVG 1.0//EN"
 "http://www.w3.org/TR/2001/REC-SVG-20010904/DTD/svg10.dtd" [
 <!ATTLIST svg xmlns:xlink CDATA #FIXED "http://www.w3.org/1999/xlink">
]>
<!-- Generated by dot version 2.8 (Tue Dec  9 22:37:01 UTC 2008)
     For user: (larryniven) Larry Niven,,, -->
<!-- Title: g Pages: 1 -->
<svg width="117pt" height="332pt"
 viewBox = "0 0 117 332"
 xmlns="http://www.w3.org/2000/svg" xmlns:xlink="http://www.w3.org/1999/xlink">
 <script>
	function svgLoad()
	{
		var nodes = document.getElementsByTagName("g");
		var index = 0;
		for(index in nodes)
		{
			var node = nodes[index];
			if(node.className.baseVal != "node")
				continue;
			else
			{
				node.style.cursor = "pointer";
				node.onclick = function() {
					nodeClick(this);
				};
			}
		}
	}
	function nodeClick(obj)
	{
		var childs = obj.getElementsByTagName("title");
		var child = childs[0];
		document.location.href="http://www.google.com/"+child.textContent;
	}
 </script>
<g id="graph0" class="graph" style="font-family:Times-Roman;font-size:14.00;" onload="svgLoad()">
<title>g</title>
<polygon style="fill:white;stroke:white;" points="-2,334 -2,-2 119,-2 119,334 -2,334"/>
<!-- a -->
<g id="node1" class="node"><title>a</title>
<ellipse style="fill:none;stroke:black;" cx="58" cy="22" rx="27" ry="18"/>
<text text-anchor="middle" x="58" y="27">a</text>
</g>
<!-- b -->
<g id="node3" class="node"><title>b</title>
<ellipse style="fill:none;stroke:black;" cx="86" cy="94" rx="27" ry="18"/>
<text text-anchor="middle" x="86" y="99">b</text>
</g>
<!-- a&#45;&gt;b -->
<g id="edge2" class="edge"><title>a&#45;&gt;b</title>
<path style="fill:none;stroke:black;" d="M65,39C68,48 72,58 76,67"/>
<polygon style="fill:black;stroke:black;" points="79,66 79,77 73,68 79,66"/>
</g>
<!-- c -->
<g id="node5" class="node"><title>c</title>
<ellipse style="fill:none;stroke:black;" cx="31" cy="166" rx="27" ry="18"/>
<text text-anchor="middle" x="31" y="171">c</text>
</g>
<!-- b&#45;&gt;c -->
<g id="edge4" class="edge"><title>b&#45;&gt;c</title>
<path style="fill:none;stroke:black;" d="M74,110C67,119 57,131 49,142"/>
<polygon style="fill:black;stroke:black;" points="52,144 43,150 46,140 52,144"/>
</g>
<!-- c&#45;&gt;a -->
<g id="edge12" class="edge"><title>c&#45;&gt;a</title>
<path style="fill:none;stroke:black;" d="M34,148C38,123 47,79 53,50"/>
<polygon style="fill:black;stroke:black;" points="50,49 55,40 56,50 50,49"/>
</g>
<!-- d -->
<g id="node7" class="node"><title>d</title>
<ellipse style="fill:none;stroke:black;" cx="31" cy="238" rx="27" ry="18"/>
<text text-anchor="middle" x="31" y="243">d</text>
</g>
<!-- c&#45;&gt;d -->
<g id="edge6" class="edge"><title>c&#45;&gt;d</title>
<path style="fill:none;stroke:black;" d="M31,184C31,192 31,201 31,210"/>
<polygon style="fill:black;stroke:black;" points="35,210 31,220 28,210 35,210"/>
</g>
<!-- e -->
<g id="node9" class="node"><title>e</title>
<ellipse style="fill:none;stroke:black;" cx="58" cy="310" rx="27" ry="18"/>
<text text-anchor="middle" x="58" y="315">e</text>
</g>
<!-- d&#45;&gt;e -->
<g id="edge8" class="edge"><title>d&#45;&gt;e</title>
<path style="fill:none;stroke:black;" d="M38,256C41,264 44,274 48,283"/>
<polygon style="fill:black;stroke:black;" points="51,281 52,292 45,284 51,281"/>
</g>
<!-- e&#45;&gt;b -->
<g id="edge10" class="edge"><title>e&#45;&gt;b</title>
<path style="fill:none;stroke:black;" d="M61,292C63,282 65,268 67,256 73,209 80,154 83,122"/>
<polygon style="fill:black;stroke:black;" points="80,122 84,112 86,122 80,122"/>
</g>
</g>
</svg>
